<svg width="86" height="86" viewBox="0 0 86 86" fill="none" xmlns="http://www.w3.org/2000/svg">
<path d="M25.0833 71.6667H60.9166" stroke="#808000" stroke-width="7.16667" stroke-linecap="round" stroke-linejoin="round"/>
<path d="M35.8333 71.6666C55.5416 62.7083 38.7 48.7333 46.5833 35.8333" stroke="#808000" stroke-width="7.16667" stroke-linecap="round" stroke-linejoin="round"/>
<path d="M34.0416 33.6833C37.9833 36.5499 40.4916 41.5666 42.2833 46.9416C35.1166 48.3749 29.7416 48.3749 25.0833 45.8666C20.7833 43.7166 16.8416 39.0583 14.3333 30.8166C24.3666 29.0249 30.1 30.8166 34.0416 33.6833Z" stroke="#808000" stroke-width="7.16667" stroke-linecap="round" stroke-linejoin="round"/>
<path d="M50.5251 21.5C47.7931 25.7698 46.4188 30.767 46.5834 35.8333C53.3918 35.475 58.4084 33.6833 61.9918 30.8167C65.5751 27.2333 67.7251 22.575 68.0834 14.3333C58.4084 14.6917 53.7501 17.9167 50.5251 21.5Z" stroke="#808000" stroke-width="7.16667" stroke-linecap="round" stroke-linejoin="round"/>
</svg>
